# xmcd CD database file
#
# Track frame offsets:
#	150
#	15375
#	33045
#	56057
#	72055
#	89715
#	106427
#	120820
#	138700
#	153302
#	171067
#
# Disc length: 2429 seconds
#
# Revision: 5
# Processed by: cddbd v1.4PL0 Copyright (c) Steve Scherf et al.
# Submitted via: CDex 1.50
#
DISCID=86097b0b
DTITLE=Joanna Connor - Believe It!
DYEAR=1989
DGENRE=Blues
TTITLE0=Texas Flyer
TTITLE1=He's Mine
TTITLE2=Doctor Feelgfood
TTITLE3=I'm Satisfied
TTITLE4=When You're Being Nice
TTITLE5=Pack It Up
TTITLE6=Everybody I Know
TTITLE7=Playing In the Dirt
TTITLE8=Soul's On Fire
TTITLE9=Somebody's On Your Case
TTITLE10=Good rockin' Daddy
EXTD=Blind Pig/BP73289 YEAR: 1989
EXTT0=
EXTT1=
EXTT2=
EXTT3=
EXTT4=
EXTT5=
EXTT6=
EXTT7=
EXTT8=
EXTT9=
EXTT10=
PLAYORDER=
